<mxfile host="app.diagrams.net" modified="2023-01-30T14:34:10.437Z" agent="5.0 (Windows)" etag="Kl8TEJQYT8u5MPQeDRhR" version="20.8.13" type="github">
  <diagram name="Seite-1" id="kDQ1YSrSx2T5lFSh3bFP">
    <mxGraphModel dx="675" dy="651" grid="1" gridSize="10" guides="1" tooltips="1" connect="1" arrows="1" fold="1" page="1" pageScale="1" pageWidth="827" pageHeight="1169" background="none" math="0" shadow="0">
      <root>
        <mxCell id="0" />
        <mxCell id="1" parent="0" />
        <mxCell id="CxbOAbyMZpuOM8MBbK7M-26" value="" style="ellipse;whiteSpace=wrap;html=1;aspect=fixed;strokeColor=#000000;fillColor=#000000;" vertex="1" parent="1">
          <mxGeometry x="10" y="10" width="80" height="80" as="geometry" />
        </mxCell>
        <mxCell id="CxbOAbyMZpuOM8MBbK7M-30" style="edgeStyle=orthogonalEdgeStyle;rounded=0;orthogonalLoop=1;jettySize=auto;html=1;exitX=1;exitY=0.5;exitDx=0;exitDy=0;strokeWidth=2;" edge="1" parent="1" source="CxbOAbyMZpuOM8MBbK7M-27" target="CxbOAbyMZpuOM8MBbK7M-29">
          <mxGeometry relative="1" as="geometry" />
        </mxCell>
        <mxCell id="CxbOAbyMZpuOM8MBbK7M-27" value="getDressed()" style="rounded=1;whiteSpace=wrap;html=1;strokeColor=#000000;fillColor=#FFFFFF;" vertex="1" parent="1">
          <mxGeometry x="140" y="20" width="120" height="60" as="geometry" />
        </mxCell>
        <mxCell id="CxbOAbyMZpuOM8MBbK7M-28" value="" style="endArrow=classic;html=1;rounded=0;exitX=1;exitY=0.5;exitDx=0;exitDy=0;entryX=0;entryY=0.5;entryDx=0;entryDy=0;strokeWidth=2;" edge="1" parent="1" source="CxbOAbyMZpuOM8MBbK7M-26" target="CxbOAbyMZpuOM8MBbK7M-27">
          <mxGeometry width="50" height="50" relative="1" as="geometry">
            <mxPoint x="360" y="370" as="sourcePoint" />
            <mxPoint x="410" y="320" as="targetPoint" />
          </mxGeometry>
        </mxCell>
        <mxCell id="CxbOAbyMZpuOM8MBbK7M-32" style="edgeStyle=orthogonalEdgeStyle;rounded=0;orthogonalLoop=1;jettySize=auto;html=1;exitX=1;exitY=0.5;exitDx=0;exitDy=0;entryX=0;entryY=0.5;entryDx=0;entryDy=0;strokeWidth=2;" edge="1" parent="1" source="CxbOAbyMZpuOM8MBbK7M-29" target="CxbOAbyMZpuOM8MBbK7M-31">
          <mxGeometry relative="1" as="geometry">
            <Array as="points">
              <mxPoint x="470" y="50" />
              <mxPoint x="470" y="50" />
            </Array>
          </mxGeometry>
        </mxCell>
        <mxCell id="CxbOAbyMZpuOM8MBbK7M-29" value="&lt;div&gt;goToParty()&lt;/div&gt;" style="rounded=1;whiteSpace=wrap;html=1;strokeColor=#000000;fillColor=#FFFFFF;" vertex="1" parent="1">
          <mxGeometry x="320" y="20" width="120" height="60" as="geometry" />
        </mxCell>
        <mxCell id="CxbOAbyMZpuOM8MBbK7M-31" value="thank()" style="rounded=1;whiteSpace=wrap;html=1;strokeColor=#000000;fillColor=#FFFFFF;" vertex="1" parent="1">
          <mxGeometry x="500" y="20" width="120" height="60" as="geometry" />
        </mxCell>
        <mxCell id="CxbOAbyMZpuOM8MBbK7M-37" style="edgeStyle=orthogonalEdgeStyle;rounded=0;orthogonalLoop=1;jettySize=auto;html=1;exitX=0;exitY=0.5;exitDx=0;exitDy=0;entryX=1;entryY=0.5;entryDx=0;entryDy=0;strokeWidth=2;startArrow=none;fontStyle=1" edge="1" parent="1" source="CxbOAbyMZpuOM8MBbK7M-77" target="CxbOAbyMZpuOM8MBbK7M-62">
          <mxGeometry relative="1" as="geometry">
            <mxPoint x="620" y="170" as="targetPoint" />
          </mxGeometry>
        </mxCell>
        <mxCell id="CxbOAbyMZpuOM8MBbK7M-57" style="edgeStyle=orthogonalEdgeStyle;rounded=0;orthogonalLoop=1;jettySize=auto;html=1;exitX=1;exitY=0.5;exitDx=0;exitDy=0;entryX=1;entryY=0.5;entryDx=0;entryDy=0;shadow=0;strokeColor=default;targetPerimeterSpacing=0;fillColor=#000000;strokeWidth=2;" edge="1" parent="1" source="CxbOAbyMZpuOM8MBbK7M-34" target="CxbOAbyMZpuOM8MBbK7M-78">
          <mxGeometry relative="1" as="geometry" />
        </mxCell>
        <mxCell id="CxbOAbyMZpuOM8MBbK7M-34" value="short?" style="rhombus;whiteSpace=wrap;html=1;strokeColor=#000000;fillColor=#FFFFFF;" vertex="1" parent="1">
          <mxGeometry x="700" y="115" width="80" height="80" as="geometry" />
        </mxCell>
        <mxCell id="CxbOAbyMZpuOM8MBbK7M-56" value="" style="strokeWidth=2;html=1;shape=mxgraph.flowchart.annotation_1;align=left;pointerEvents=1;strokeColor=#000000;fillColor=#FFFFFF;rotation=-180;" vertex="1" parent="1">
          <mxGeometry x="490" y="290" width="50" height="110" as="geometry" />
        </mxCell>
        <mxCell id="CxbOAbyMZpuOM8MBbK7M-61" style="edgeStyle=orthogonalEdgeStyle;rounded=0;orthogonalLoop=1;jettySize=auto;html=1;exitX=0;exitY=0.5;exitDx=0;exitDy=0;entryX=1;entryY=0.5;entryDx=0;entryDy=0;strokeWidth=2;" edge="1" parent="1" source="CxbOAbyMZpuOM8MBbK7M-62" target="CxbOAbyMZpuOM8MBbK7M-65">
          <mxGeometry relative="1" as="geometry" />
        </mxCell>
        <mxCell id="CxbOAbyMZpuOM8MBbK7M-62" value="rollDice()" style="rounded=1;whiteSpace=wrap;html=1;strokeColor=#000000;fillColor=#FFFFFF;" vertex="1" parent="1">
          <mxGeometry x="320" y="125" width="120" height="60" as="geometry" />
        </mxCell>
        <mxCell id="CxbOAbyMZpuOM8MBbK7M-63" style="edgeStyle=orthogonalEdgeStyle;rounded=0;orthogonalLoop=1;jettySize=auto;html=1;exitX=0.5;exitY=1;exitDx=0;exitDy=0;entryX=0.5;entryY=1;entryDx=0;entryDy=0;strokeWidth=2;" edge="1" parent="1" source="CxbOAbyMZpuOM8MBbK7M-65" target="CxbOAbyMZpuOM8MBbK7M-77">
          <mxGeometry relative="1" as="geometry" />
        </mxCell>
        <mxCell id="CxbOAbyMZpuOM8MBbK7M-64" style="edgeStyle=orthogonalEdgeStyle;rounded=0;orthogonalLoop=1;jettySize=auto;html=1;exitX=0;exitY=0.5;exitDx=0;exitDy=0;entryX=0.5;entryY=0;entryDx=0;entryDy=0;strokeWidth=2;" edge="1" parent="1" source="CxbOAbyMZpuOM8MBbK7M-65" target="CxbOAbyMZpuOM8MBbK7M-66">
          <mxGeometry relative="1" as="geometry">
            <mxPoint x="80" y="155" as="targetPoint" />
          </mxGeometry>
        </mxCell>
        <mxCell id="CxbOAbyMZpuOM8MBbK7M-65" value="&amp;gt; 17?" style="rhombus;whiteSpace=wrap;html=1;strokeColor=#000000;fillColor=#FFFFFF;" vertex="1" parent="1">
          <mxGeometry x="180" y="115" width="80" height="80" as="geometry" />
        </mxCell>
        <mxCell id="CxbOAbyMZpuOM8MBbK7M-108" style="edgeStyle=orthogonalEdgeStyle;rounded=0;sketch=0;orthogonalLoop=1;jettySize=auto;html=1;exitX=0.5;exitY=1;exitDx=0;exitDy=0;entryX=0.5;entryY=0;entryDx=0;entryDy=0;shadow=0;strokeColor=default;strokeWidth=2;startArrow=none;startFill=0;endArrow=classic;endFill=1;targetPerimeterSpacing=0;fillColor=#000000;" edge="1" parent="1" source="CxbOAbyMZpuOM8MBbK7M-66" target="CxbOAbyMZpuOM8MBbK7M-88">
          <mxGeometry relative="1" as="geometry" />
        </mxCell>
        <mxCell id="CxbOAbyMZpuOM8MBbK7M-66" value="drink()" style="rounded=1;whiteSpace=wrap;html=1;strokeColor=#000000;fillColor=#FFFFFF;" vertex="1" parent="1">
          <mxGeometry x="20" y="260" width="120" height="60" as="geometry" />
        </mxCell>
        <mxCell id="CxbOAbyMZpuOM8MBbK7M-67" value="true" style="text;html=1;align=center;verticalAlign=middle;resizable=0;points=[];autosize=1;strokeColor=none;fillColor=none;" vertex="1" parent="1">
          <mxGeometry x="665" y="120" width="40" height="30" as="geometry" />
        </mxCell>
        <mxCell id="CxbOAbyMZpuOM8MBbK7M-68" value="false" style="text;html=1;align=center;verticalAlign=middle;resizable=0;points=[];autosize=1;strokeColor=none;fillColor=none;" vertex="1" parent="1">
          <mxGeometry x="170" y="185" width="50" height="30" as="geometry" />
        </mxCell>
        <mxCell id="CxbOAbyMZpuOM8MBbK7M-69" value="walk()" style="rounded=1;whiteSpace=wrap;html=1;strokeColor=#000000;fillColor=#FFFFFF;" vertex="1" parent="1">
          <mxGeometry x="320" y="260" width="120" height="60" as="geometry" />
        </mxCell>
        <mxCell id="CxbOAbyMZpuOM8MBbK7M-70" value="drink()" style="rounded=1;whiteSpace=wrap;html=1;strokeColor=#000000;fillColor=#FFFFFF;" vertex="1" parent="1">
          <mxGeometry x="320" y="380" width="120" height="60" as="geometry" />
        </mxCell>
        <mxCell id="CxbOAbyMZpuOM8MBbK7M-71" style="edgeStyle=orthogonalEdgeStyle;rounded=0;sketch=0;orthogonalLoop=1;jettySize=auto;html=1;exitX=1;exitY=1;exitDx=0;exitDy=0;exitPerimeter=0;entryX=1;entryY=0.5;entryDx=0;entryDy=0;shadow=0;strokeColor=#000000;targetPerimeterSpacing=0;fillColor=#000000;strokeWidth=2;" edge="1" parent="1" target="CxbOAbyMZpuOM8MBbK7M-69">
          <mxGeometry relative="1" as="geometry">
            <mxPoint x="490" y="290.0000000000001" as="sourcePoint" />
            <Array as="points">
              <mxPoint x="480" y="290" />
              <mxPoint x="480" y="290" />
            </Array>
          </mxGeometry>
        </mxCell>
        <mxCell id="CxbOAbyMZpuOM8MBbK7M-72" style="edgeStyle=orthogonalEdgeStyle;rounded=0;sketch=0;orthogonalLoop=1;jettySize=auto;html=1;exitX=1;exitY=0;exitDx=0;exitDy=0;exitPerimeter=0;entryX=0.997;entryY=0.328;entryDx=0;entryDy=0;entryPerimeter=0;shadow=0;strokeColor=#000000;targetPerimeterSpacing=0;fillColor=#000000;strokeWidth=2;" edge="1" parent="1" target="CxbOAbyMZpuOM8MBbK7M-70">
          <mxGeometry relative="1" as="geometry">
            <mxPoint x="490" y="400" as="sourcePoint" />
            <Array as="points">
              <mxPoint x="440" y="400" />
            </Array>
          </mxGeometry>
        </mxCell>
        <mxCell id="CxbOAbyMZpuOM8MBbK7M-73" value="drawStraw()" style="rounded=1;whiteSpace=wrap;html=1;strokeColor=#000000;fillColor=#FFFFFF;" vertex="1" parent="1">
          <mxGeometry x="680" y="20" width="120" height="60" as="geometry" />
        </mxCell>
        <mxCell id="CxbOAbyMZpuOM8MBbK7M-74" style="edgeStyle=orthogonalEdgeStyle;rounded=0;orthogonalLoop=1;jettySize=auto;html=1;exitX=1;exitY=0.5;exitDx=0;exitDy=0;entryX=0;entryY=0.5;entryDx=0;entryDy=0;strokeWidth=2;" edge="1" parent="1">
          <mxGeometry relative="1" as="geometry">
            <mxPoint x="620.0000000000002" y="49.58" as="sourcePoint" />
            <mxPoint x="680.0000000000002" y="49.58" as="targetPoint" />
            <Array as="points">
              <mxPoint x="650" y="49.58" />
              <mxPoint x="650" y="49.58" />
            </Array>
          </mxGeometry>
        </mxCell>
        <mxCell id="CxbOAbyMZpuOM8MBbK7M-75" style="edgeStyle=orthogonalEdgeStyle;rounded=0;orthogonalLoop=1;jettySize=auto;html=1;exitX=0.5;exitY=1;exitDx=0;exitDy=0;entryX=0.5;entryY=0;entryDx=0;entryDy=0;strokeWidth=2;" edge="1" parent="1" source="CxbOAbyMZpuOM8MBbK7M-73" target="CxbOAbyMZpuOM8MBbK7M-34">
          <mxGeometry relative="1" as="geometry">
            <mxPoint x="650.0000000000002" y="100" as="sourcePoint" />
            <mxPoint x="710.0000000000002" y="100" as="targetPoint" />
            <Array as="points" />
          </mxGeometry>
        </mxCell>
        <mxCell id="CxbOAbyMZpuOM8MBbK7M-76" value="false" style="text;html=1;align=center;verticalAlign=middle;resizable=0;points=[];autosize=1;strokeColor=none;fillColor=none;" vertex="1" parent="1">
          <mxGeometry x="770" y="120" width="50" height="30" as="geometry" />
        </mxCell>
        <mxCell id="CxbOAbyMZpuOM8MBbK7M-78" value="thank()" style="rounded=1;whiteSpace=wrap;html=1;strokeColor=#000000;fillColor=#FFFFFF;" vertex="1" parent="1">
          <mxGeometry x="620" y="315" width="120" height="60" as="geometry" />
        </mxCell>
        <mxCell id="CxbOAbyMZpuOM8MBbK7M-77" value="thank()" style="rounded=1;whiteSpace=wrap;html=1;strokeColor=#000000;fillColor=#FFFFFF;" vertex="1" parent="1">
          <mxGeometry x="530" y="125" width="120" height="60" as="geometry" />
        </mxCell>
        <mxCell id="CxbOAbyMZpuOM8MBbK7M-80" style="edgeStyle=orthogonalEdgeStyle;rounded=0;orthogonalLoop=1;jettySize=auto;html=1;exitX=0;exitY=0.5;exitDx=0;exitDy=0;entryX=1;entryY=0.5;entryDx=0;entryDy=0;strokeWidth=2;startArrow=none;" edge="1" parent="1" source="CxbOAbyMZpuOM8MBbK7M-34" target="CxbOAbyMZpuOM8MBbK7M-77">
          <mxGeometry relative="1" as="geometry">
            <mxPoint x="540" y="165" as="sourcePoint" />
            <mxPoint x="450" y="165" as="targetPoint" />
          </mxGeometry>
        </mxCell>
        <mxCell id="CxbOAbyMZpuOM8MBbK7M-81" style="edgeStyle=orthogonalEdgeStyle;rounded=0;orthogonalLoop=1;jettySize=auto;html=1;exitX=0;exitY=0.5;exitDx=0;exitDy=0;entryX=0;entryY=0.5;entryDx=0;entryDy=0;strokeWidth=2;startArrow=none;fontStyle=1;entryPerimeter=0;" edge="1" parent="1" target="CxbOAbyMZpuOM8MBbK7M-56">
          <mxGeometry relative="1" as="geometry">
            <mxPoint x="620" y="344.58000000000004" as="sourcePoint" />
            <mxPoint x="530" y="344.58000000000004" as="targetPoint" />
          </mxGeometry>
        </mxCell>
        <mxCell id="CxbOAbyMZpuOM8MBbK7M-107" style="edgeStyle=orthogonalEdgeStyle;rounded=0;sketch=0;orthogonalLoop=1;jettySize=auto;html=1;exitX=0;exitY=0;exitDx=0;exitDy=0;exitPerimeter=0;shadow=0;strokeColor=default;strokeWidth=2;startArrow=none;startFill=0;endArrow=classic;endFill=1;targetPerimeterSpacing=0;fillColor=#000000;" edge="1" parent="1" source="CxbOAbyMZpuOM8MBbK7M-87" target="CxbOAbyMZpuOM8MBbK7M-66">
          <mxGeometry relative="1" as="geometry">
            <Array as="points">
              <mxPoint x="230" y="290" />
              <mxPoint x="230" y="290" />
            </Array>
          </mxGeometry>
        </mxCell>
        <mxCell id="CxbOAbyMZpuOM8MBbK7M-87" value="" style="strokeWidth=2;html=1;shape=mxgraph.flowchart.annotation_1;align=left;pointerEvents=1;strokeColor=#000000;fillColor=#FFFFFF;" vertex="1" parent="1">
          <mxGeometry x="270" y="290" width="50" height="110" as="geometry" />
        </mxCell>
        <mxCell id="CxbOAbyMZpuOM8MBbK7M-97" style="edgeStyle=orthogonalEdgeStyle;rounded=0;sketch=0;orthogonalLoop=1;jettySize=auto;html=1;exitX=0.5;exitY=1;exitDx=0;exitDy=0;entryX=0.5;entryY=0;entryDx=0;entryDy=0;shadow=0;strokeColor=default;strokeWidth=2;startArrow=none;startFill=0;endArrow=classic;endFill=1;targetPerimeterSpacing=0;fillColor=#000000;" edge="1" parent="1" source="CxbOAbyMZpuOM8MBbK7M-88" target="CxbOAbyMZpuOM8MBbK7M-96">
          <mxGeometry relative="1" as="geometry" />
        </mxCell>
        <mxCell id="CxbOAbyMZpuOM8MBbK7M-88" value="sing()" style="rounded=1;whiteSpace=wrap;html=1;strokeColor=#000000;fillColor=#FFFFFF;" vertex="1" parent="1">
          <mxGeometry x="20" y="380" width="120" height="60" as="geometry" />
        </mxCell>
        <mxCell id="CxbOAbyMZpuOM8MBbK7M-99" style="edgeStyle=orthogonalEdgeStyle;rounded=0;sketch=0;orthogonalLoop=1;jettySize=auto;html=1;exitX=0.5;exitY=0;exitDx=0;exitDy=0;exitPerimeter=0;shadow=0;strokeColor=default;strokeWidth=2;startArrow=none;startFill=0;endArrow=classic;endFill=1;targetPerimeterSpacing=0;fillColor=#000000;entryX=1;entryY=0.5;entryDx=0;entryDy=0;" edge="1" parent="1" source="CxbOAbyMZpuOM8MBbK7M-94" target="CxbOAbyMZpuOM8MBbK7M-88">
          <mxGeometry relative="1" as="geometry">
            <mxPoint x="220" y="340" as="targetPoint" />
          </mxGeometry>
        </mxCell>
        <mxCell id="CxbOAbyMZpuOM8MBbK7M-104" style="edgeStyle=orthogonalEdgeStyle;rounded=0;sketch=0;orthogonalLoop=1;jettySize=auto;html=1;exitX=1;exitY=0.5;exitDx=0;exitDy=0;exitPerimeter=0;entryX=0;entryY=0.5;entryDx=0;entryDy=0;shadow=0;strokeColor=default;strokeWidth=2;startArrow=none;startFill=0;endArrow=classic;endFill=1;targetPerimeterSpacing=0;fillColor=#000000;" edge="1" parent="1" source="CxbOAbyMZpuOM8MBbK7M-94" target="CxbOAbyMZpuOM8MBbK7M-102">
          <mxGeometry relative="1" as="geometry" />
        </mxCell>
        <mxCell id="CxbOAbyMZpuOM8MBbK7M-94" value="evaluate()" style="strokeWidth=2;html=1;shape=mxgraph.flowchart.decision;whiteSpace=wrap;strokeColor=#000000;fillColor=#FFFFFF;" vertex="1" parent="1">
          <mxGeometry x="170" y="490" width="100" height="100" as="geometry" />
        </mxCell>
        <mxCell id="CxbOAbyMZpuOM8MBbK7M-98" style="edgeStyle=orthogonalEdgeStyle;rounded=0;sketch=0;orthogonalLoop=1;jettySize=auto;html=1;exitX=1;exitY=0.5;exitDx=0;exitDy=0;entryX=0;entryY=0.5;entryDx=0;entryDy=0;entryPerimeter=0;shadow=0;strokeColor=default;strokeWidth=2;startArrow=none;startFill=0;endArrow=classic;endFill=1;targetPerimeterSpacing=0;fillColor=#000000;" edge="1" parent="1" source="CxbOAbyMZpuOM8MBbK7M-96" target="CxbOAbyMZpuOM8MBbK7M-94">
          <mxGeometry relative="1" as="geometry" />
        </mxCell>
        <mxCell id="CxbOAbyMZpuOM8MBbK7M-96" value="evaluate()" style="rounded=1;whiteSpace=wrap;html=1;strokeColor=#000000;fillColor=#FFFFFF;" vertex="1" parent="1">
          <mxGeometry x="20" y="510" width="120" height="60" as="geometry" />
        </mxCell>
        <mxCell id="CxbOAbyMZpuOM8MBbK7M-100" value="&lt;div&gt;false&lt;/div&gt;" style="text;html=1;align=center;verticalAlign=middle;resizable=0;points=[];autosize=1;strokeColor=none;fillColor=none;" vertex="1" parent="1">
          <mxGeometry x="175" y="460" width="50" height="30" as="geometry" />
        </mxCell>
        <mxCell id="CxbOAbyMZpuOM8MBbK7M-102" value="" style="ellipse;whiteSpace=wrap;html=1;aspect=fixed;strokeColor=#000000;fillColor=#FFFFFF;" vertex="1" parent="1">
          <mxGeometry x="320" y="500" width="80" height="80" as="geometry" />
        </mxCell>
        <mxCell id="CxbOAbyMZpuOM8MBbK7M-103" value="" style="ellipse;whiteSpace=wrap;html=1;aspect=fixed;strokeColor=#000000;fillColor=#000000;" vertex="1" parent="1">
          <mxGeometry x="330" y="510" width="60" height="60" as="geometry" />
        </mxCell>
        <mxCell id="CxbOAbyMZpuOM8MBbK7M-105" value="true" style="text;html=1;align=center;verticalAlign=middle;resizable=0;points=[];autosize=1;strokeColor=none;fillColor=none;" vertex="1" parent="1">
          <mxGeometry x="265" y="510" width="40" height="30" as="geometry" />
        </mxCell>
        <mxCell id="CxbOAbyMZpuOM8MBbK7M-106" value="true" style="text;html=1;align=center;verticalAlign=middle;resizable=0;points=[];autosize=1;strokeColor=none;fillColor=none;" vertex="1" parent="1">
          <mxGeometry x="155" y="125" width="40" height="30" as="geometry" />
        </mxCell>
      </root>
    </mxGraphModel>
  </diagram>
</mxfile>
